<?xml version="1.0" standalone="no"?>
<!DOCTYPE svg PUBLIC "-//W3C//DTD SVG 20010904//EN"
 "http://www.w3.org/TR/2001/REC-SVG-20010904/DTD/svg10.dtd">
<svg version="1.0" xmlns="http://www.w3.org/2000/svg"
 width="1280.000000pt" height="800.000000pt" viewBox="0 0 1280.000000 800.000000"
 preserveAspectRatio="xMidYMid meet">

<g transform="translate(0.000000,800.000000) scale(0.100000,-0.100000)"
fill="#000000" stroke="none">
<path d="M10734 7570 c0 -58 1 -81 3 -52 2 28 2 76 0 105 -2 28 -3 5 -3 -53z"/>
<path d="M12042 7523 c-2 -39 -6 -53 -17 -53 -12 0 -15 -45 -17 -314 -3 -312
1 -351 30 -320 15 16 16 28 2 19 -7 -4 -10 96 -10 293 0 257 2 301 15 306 13
5 15 -33 15 -304 0 -171 3 -310 8 -310 4 0 7 143 7 319 0 243 -3 317 -12 314
-8 -3 -13 13 -16 49 l-3 53 -2 -52z"/>
<path d="M11450 7470 c0 -5 7 -10 15 -10 13 0 15 -30 15 -211 0 -187 -2 -210
-16 -207 -14 3 -16 27 -14 198 0 140 4 196 13 202 7 4 -3 7 -23 7 -19 0 -29
-3 -22 -6 9 -3 12 -60 12 -234 0 -211 1 -229 18 -229 14 0 14 2 3 9 -19 12 -6
41 19 41 19 0 20 6 20 209 0 115 -3 216 -6 225 -7 17 -34 22 -34 6z"/>
<path d="M10750 6940 c0 -563 -2 -542 44 -524 14 5 16 31 16 180 l0 174 -25 6
c-25 6 -25 6 -25 130 l0 124 24 0 25 0 3 133 c2 72 2 171 0 220 l-3 87 -29 0
-30 0 0 -530z m48 315 c-3 -187 -4 -205 -20 -205 -17 0 -18 16 -18 189 0 198
3 221 26 221 12 0 14 -32 12 -205z m-6 -660 c-2 -136 -5 -165 -17 -165 -13 0
-15 27 -15 165 0 150 2 165 18 165 16 0 17 -13 14 -165z"/>
<path d="M10960 7455 c0 -13 29 -15 213 -13 116 1 187 4 157 7 l-55 5 70 6
c43 4 -19 7 -157 8 -197 2 -228 0 -228 -13z m238 -2 c-43 -2 -113 -2 -155 0
-43 1 -8 3 77 3 85 0 120 -2 78 -3z"/>
<path d="M10020 7380 l0 -70 33 0 32 0 0 64 c0 53 -3 66 -17 70 -10 2 -18 0
-18 -5 0 -5 5 -9 10 -9 6 0 10 -25 10 -55 0 -42 -3 -55 -15 -55 -12 0 -15 14
-15 65 0 37 -4 65 -10 65 -6 0 -10 -30 -10 -70z"/>
<path d="M10904 7338 l-19 -23 23 19 c21 18 27 26 19 26 -2 0 -12 -10 -23 -22z"/>
<path d="M10129 7223 l-24 -28 28 24 c15 14 27 26 27 28 0 8 -8 1 -31 -24z"/>
<path d="M10053 7191 c-40 -7 -70 -21 -45 -21 8 0 12 -23 12 -69 0 -66 1 -69
25 -74 17 -3 24 0 22 7 -3 6 -10 10 -16 9 -7 -2 -11 20 -11 67 0 65 2 70 21
70 17 0 20 -5 16 -22 -3 -13 -2 -48 2 -78 l8 -55 4 88 c2 48 4 86 4 86 0 -1
-19 -5 -42 -8z"/>
<path d="M9558 7183 c7 -3 16 -2 19 1 4 3 -2 6 -13 5 -11 0 -14 -3 -6 -6z"/>
<path d="M8700 7150 l0 -30 183 2 182 3 1 28 1 27 -183 0 -184 0 0 -30z m350
0 c0 -15 -5 -19 -22 -16 -13 3 -87 5 -165 5 -120 1 -143 3 -143 16 0 13 25 15
165 15 158 0 165 -1 165 -20z"/>
<path d="M9281 7164 c0 -11 3 -14 6 -6 3 7 2 16 -1 19 -3 4 -6 -2 -5 -13z"/>
<path d="M9737 7173 c-4 -3 -6 -18 -6 -32 1 -17 3 -20 6 -8 4 14 16 17 67 17
49 0 63 3 63 15 0 12 -14 15 -62 15 -34 0 -65 -3 -68 -7z m91 -10 c-16 -2 -40
-2 -55 0 -16 2 -3 4 27 4 30 0 43 -2 28 -4z"/>
<path d="M9584 7085 c0 -49 1 -71 3 -48 2 23 2 64 0 90 -2 26 -3 8 -3 -42z"/>
<path d="M11581 6868 c-1 -16 -12 -18 -76 -18 l-75 0 1 -32 c2 -31 2 -31 6 -5
l4 27 272 2 c246 2 253 3 75 5 -176 3 -197 5 -201 21 -4 16 -5 16 -6 0z"/>
<path d="M12278 6853 c7 -3 16 -2 19 1 4 3 -2 6 -13 5 -11 0 -14 -3 -6 -6z"/>
<path d="M12140 6736 c0 -2 8 -10 18 -17 15 -13 16 -12 3 4 -13 16 -21 21 -21
13z"/>
<path d="M11432 6580 c0 -19 2 -27 5 -17 2 9 2 25 0 35 -3 9 -5 1 -5 -18z"/>
<path d="M8945 6570 c3 -5 8 -10 11 -10 2 0 4 5 4 10 0 6 -5 10 -11 10 -5 0
-7 -4 -4 -10z"/>
<path d="M8951 6504 c0 -11 3 -14 6 -6 3 7 2 16 -1 19 -3 4 -6 -2 -5 -13z"/>
<path d="M11431 6504 c0 -11 3 -14 6 -6 3 7 2 16 -1 19 -3 4 -6 -2 -5 -13z"/>
<path d="M8763 6472 c-73 -3 -71 0 -63 -147 4 -75 8 -90 23 -93 9 -2 17 2 17
8 0 7 -7 10 -15 6 -13 -4 -15 8 -15 82 l0 87 55 -3 c51 -4 55 -2 61 22 3 14 4
29 2 33 -1 4 -31 7 -65 5z m47 -27 c0 -11 -12 -15 -50 -15 -44 0 -49 2 -38 15
18 20 88 20 88 0z"/>
<path d="M8953 6445 c3 -29 6 -30 57 -33 59 -4 72 3 64 35 -5 18 -14 22 -65
25 l-60 3 4 -30z m107 -5 c0 -16 -6 -19 -42 -16 -30 2 -44 8 -46 20 -3 13 5
16 42 16 39 0 46 -3 46 -20z"/>
<path d="M9930 6470 l-135 -5 -1 -28 -1 -28 173 1 174 2 0 28 c0 25 -4 28 -37
31 -21 2 -99 2 -173 -1z m200 -25 c0 -13 -24 -15 -160 -15 -136 0 -160 2 -160
15 0 13 24 15 160 15 136 0 160 -2 160 -15z"/>
<path d="M10551 6434 c0 -11 3 -14 6 -6 3 7 2 16 -1 19 -3 4 -6 -2 -5 -13z"/>
<path d="M10134 6275 c0 -71 1 -99 3 -62 2 37 2 96 0 130 -2 34 -3 4 -3 -68z"/>
<path d="M10752 6168 c-2 -202 0 -238 12 -238 8 0 18 5 22 12 5 8 2 9 -9 5
-15 -6 -17 15 -20 226 l-2 232 -3 -237z"/>
<path d="M11118 6323 c7 -3 16 -2 19 1 4 3 -2 6 -13 5 -11 0 -14 -3 -6 -6z"/>
<path d="M11770 6293 l0 -33 183 -1 c215 0 351 1 354 5 2 1 5 16 6 32 l4 29
-274 0 -273 0 0 -32z m530 -5 c0 -20 -4 -21 -117 -15 -65 4 -182 7 -260 7
-122 0 -143 2 -143 15 0 14 32 16 260 14 255 -1 260 -1 260 -21z"/>
<path d="M10458 6283 c7 -3 16 -2 19 1 4 3 -2 6 -13 5 -11 0 -14 -3 -6 -6z"/>
<path d="M11318 6253 c23 -2 61 -2 85 0 23 2 4 4 -43 4 -47 0 -66 -2 -42 -4z"/>
<path d="M11281 6224 c0 -11 3 -14 6 -6 3 7 2 16 -1 19 -3 4 -6 -2 -5 -13z"/>
<path d="M12160 6166 c0 -2 8 -10 18 -17 15 -13 16 -12 3 4 -13 16 -21 21 -21
13z"/>
<path d="M12270 5954 c0 -135 2 -155 15 -150 13 4 15 -9 15 -85 l0 -90 -169 6
c-160 5 -169 4 -174 -14 -2 -10 -2 -23 2 -28 3 -6 117 -13 268 -16 l261 -5 6
21 c9 36 7 47 -9 41 -8 -4 -15 -2 -15 3 0 6 -22 6 -52 2 -29 -4 -65 -8 -80 -8
l-28 -1 0 240 c0 233 -1 240 -20 240 -19 0 -20 -7 -20 -156z m27 -71 c-2 -38
-3 -7 -3 67 0 74 1 105 3 68 2 -38 2 -98 0 -135z m183 -278 c0 -13 -35 -15
-255 -15 -220 0 -255 2 -255 15 0 13 35 15 255 15 220 0 255 -2 255 -15z"/>
<path d="M8705 6078 c-8 -23 -10 -378 -2 -378 4 0 7 39 7 86 0 72 2 85 15 80
13 -4 15 9 15 87 0 65 -3 88 -10 77 -6 -9 -8 -41 -4 -77 4 -44 3 -63 -5 -63
-7 0 -11 29 -11 86 0 71 3 89 18 100 16 13 16 13 -1 14 -10 0 -20 -6 -22 -12z"/>
<path d="M11315 6040 c3 -5 8 -10 11 -10 2 0 4 5 4 10 0 6 -5 10 -11 10 -5 0
-7 -4 -4 -10z"/>
<path d="M9894 6008 l-19 -23 23 19 c21 18 27 26 19 26 -2 0 -12 -10 -23 -22z"/>
<path d="M11229 6003 c-13 -16 -12 -17 4 -4 9 7 17 15 17 17 0 8 -8 3 -21 -13z"/>
<path d="M10975 5940 c3 -5 8 -10 11 -10 2 0 4 5 4 10 0 6 -5 10 -11 10 -5 0
-7 -4 -4 -10z"/>
<path d="M11012 5930 c0 -14 2 -19 5 -12 2 6 2 18 0 25 -3 6 -5 1 -5 -13z"/>
<path d="M10558 5933 c7 -3 16 -2 19 1 4 3 -2 6 -13 5 -11 0 -14 -3 -6 -6z"/>
<path d="M10983 5845 c0 -22 2 -30 4 -17 2 12 2 30 0 40 -3 9 -5 -1 -4 -23z"/>
<path d="M8730 5708 c0 -5 110 -8 245 -8 211 0 245 -2 245 -15 0 -13 -33 -15
-239 -15 -182 0 -241 3 -244 13 -3 6 -6 3 -6 -8 -1 -19 6 -20 249 -22 138 -1
251 2 251 5 1 4 3 17 4 29 l2 22 -253 3 c-140 2 -254 0 -254 -4z"/>
<path d="M10325 5710 c-3 -5 -1 -10 4 -10 6 0 11 5 11 10 0 6 -2 10 -4 10 -3
0 -8 -4 -11 -10z"/>
<path d="M9594 5685 l1 -24 265 -3 265 -3 3 28 3 27 -269 0 -269 0 1 -25z
m520 0 c5 -13 -27 -15 -249 -15 -220 0 -255 2 -255 15 0 13 34 15 249 15 212
0 250 -2 255 -15z"/>
<path d="M10351 5694 c0 -11 3 -14 6 -6 3 7 2 16 -1 19 -3 4 -6 -2 -5 -13z"/>
<path d="M8688 5683 c9 -3 12 -47 12 -169 0 -157 1 -164 20 -164 19 0 20 6 19
108 -1 59 -3 99 -6 90 -11 -43 -23 -11 -23 62 0 70 -2 80 -17 79 -11 0 -13 -3
-5 -6z m41 -248 c0 -43 -4 -75 -9 -75 -6 0 -10 32 -10 75 0 41 4 75 9 75 5 0
9 -34 10 -75z"/>
<path d="M10163 5683 c15 -2 39 -2 55 0 15 2 2 4 -28 4 -30 0 -43 -2 -27 -4z"/>
<path d="M11018 5633 c7 -3 16 -2 19 1 4 3 -2 6 -13 5 -11 0 -14 -3 -6 -6z"/>
<path d="M11186 5625 c4 -8 1 -15 -6 -15 -7 0 -6 -5 4 -15 12 -12 52 -15 234
-15 229 0 235 1 224 43 -4 16 -24 17 -233 17 -199 0 -228 -2 -223 -15z m444
-20 c0 -13 -31 -15 -215 -15 -184 0 -215 2 -215 15 0 13 31 15 215 15 184 0
215 -2 215 -15z"/>
<path d="M10654 5485 c0 -82 2 -115 3 -72 2 43 2 110 0 150 -1 40 -3 5 -3 -78z"/>
<path d="M10354 5385 c0 -82 2 -115 3 -72 2 43 2 110 0 150 -1 40 -3 5 -3 -78z"/>
<path d="M10018 5483 c7 -3 16 -2 19 1 4 3 -2 6 -13 5 -11 0 -14 -3 -6 -6z"/>
<path d="M12448 5423 c9 -3 13 -46 14 -156 1 -84 3 -124 5 -89 2 36 8 60 13
57 6 -4 10 33 10 94 l0 101 -27 -1 c-16 0 -22 -3 -15 -6z m29 -135 c-2 -24 -4
-5 -4 42 0 47 2 66 4 43 2 -24 2 -62 0 -85z"/>
<path d="M10141 5354 c0 -11 3 -14 6 -6 3 7 2 16 -1 19 -3 4 -6 -2 -5 -13z"/>
<path d="M8835 5300 c10 -11 20 -20 23 -20 3 0 -3 9 -13 20 -10 11 -20 20 -23
20 -3 0 3 -9 13 -20z"/>
<path d="M9467 5189 c7 -7 15 -10 18 -7 3 3 -2 9 -12 12 -14 6 -15 5 -6 -5z"/>
<path d="M8732 5130 c0 -14 2 -19 5 -12 2 6 2 18 0 25 -3 6 -5 1 -5 -13z"/>
<path d="M10650 5140 c0 -5 5 -10 11 -10 5 0 7 5 4 10 -3 6 -8 10 -11 10 -2 0
-4 -4 -4 -10z"/>
<path d="M12708 5083 c7 -3 16 -2 19 1 4 3 -2 6 -13 5 -11 0 -14 -3 -6 -6z"/>
<path d="M10331 5063 c0 -11 3 -13 6 -5 2 6 10 9 15 6 7 -4 8 -2 4 4 -11 18
-26 14 -25 -5z"/>
<path d="M12475 5070 c-16 -7 -17 -9 -3 -9 9 -1 19 -7 21 -13 3 -7 6 -3 6 10
1 12 0 22 -1 21 -2 0 -12 -4 -23 -9z"/>
<path d="M10352 4808 l-2 -247 -762 -1 c-419 0 -763 -2 -765 -3 -3 -3 -4 -527
-3 -1489 l0 -568 360 0 360 0 0 30 c0 29 -1 30 -49 30 l-50 0 -4 43 -4 42 -1
-42 -2 -41 -275 -2 -275 -1 0 231 0 230 260 0 260 0 0 -66 c0 -52 -4 -70 -17
-80 -15 -11 -12 -11 20 -2 l37 11 -2 166 -2 166 -3 -162 c-2 -97 -7 -163 -13
-163 -6 0 -10 31 -10 70 l0 70 -270 0 -270 0 0 -240 0 -240 315 -1 c357 -2
334 -1 338 -14 1 -6 -120 -11 -345 -13 l-348 -2 0 932 c0 512 3 969 7 1015 l6
83 753 0 c657 0 754 -2 754 -15 0 -13 -93 -14 -727 -14 -401 0 -735 -2 -743
-5 -13 -5 -14 -38 -10 -239 l5 -232 623 -3 c544 -2 622 -4 622 -17 0 -13 -28
-15 -190 -15 -104 0 -190 -3 -190 -7 0 -5 88 -8 195 -8 175 0 195 2 195 17 0
9 2 22 5 30 4 10 -13 13 -85 11 l-90 -2 -2 47 -1 47 -6 -47 -6 -46 -532 -1
-533 -1 0 225 0 225 68 1 c37 0 235 3 440 5 269 4 372 2 372 -6 0 -6 5 -8 12
-4 6 4 138 8 294 8 155 1 285 4 288 7 4 3 5 127 3 275 l-2 269 -3 -247z"/>
<path d="M10784 5018 l-19 -23 23 19 c21 18 27 26 19 26 -2 0 -12 -10 -23 -22z"/>
<path d="M12492 5010 c0 -14 2 -19 5 -12 2 6 2 18 0 25 -3 6 -5 1 -5 -13z"/>
<path d="M12023 4940 c0 -36 2 -50 4 -32 2 17 2 47 0 65 -2 17 -4 3 -4 -33z"/>
<path d="M12043 4960 c0 -25 2 -35 4 -22 2 12 2 32 0 45 -2 12 -4 2 -4 -23z"/>
<path d="M8713 4973 c-10 -3 -13 -41 -13 -139 0 -112 2 -134 15 -134 12 0 15
-15 15 -75 0 -65 2 -75 18 -74 10 0 12 3 5 6 -10 3 -14 55 -15 201 -2 136 -3
161 -5 80 -2 -65 -7 -118 -12 -118 -4 0 -7 52 -7 115 1 86 4 118 15 124 15 10
2 21 -16 14z"/>
<path d="M10652 4950 c0 -14 2 -19 5 -12 2 6 2 18 0 25 -3 6 -5 1 -5 -13z"/>
<path d="M12550 4950 c-9 -6 -10 -10 -3 -10 6 0 15 5 18 10 8 12 4 12 -15 0z"/>
<path d="M10821 4854 c0 -11 3 -14 6 -6 3 7 2 16 -1 19 -3 4 -6 -2 -5 -13z"/>
<path d="M11074 4695 c0 -82 2 -115 3 -72 2 43 2 110 0 150 -1 40 -3 5 -3 -78z"/>
<path d="M12042 4688 l-2 -158 -305 0 -305 0 0 -30 0 -30 443 -1 c243 0 483
-1 532 -2 l90 -2 3 33 3 32 -225 0 -225 0 -4 158 -3 157 -2 -157z m438 -190
c0 -17 -31 -18 -515 -18 -484 0 -515 1 -515 18 0 16 31 17 515 17 484 0 515
-1 515 -17z"/>
<path d="M10651 4814 c0 -11 3 -14 6 -6 3 7 2 16 -1 19 -3 4 -6 -2 -5 -13z"/>
<path d="M12023 4715 c0 -44 2 -61 4 -37 2 23 2 59 0 80 -2 20 -4 1 -4 -43z"/>
<path d="M10909 4753 c-13 -16 -12 -17 4 -4 9 7 17 15 17 17 0 8 -8 3 -21 -13z"/>
<path d="M10652 4600 c0 -19 2 -27 5 -17 2 9 2 25 0 35 -3 9 -5 1 -5 -18z"/>
<path d="M10688 4573 c6 -2 18 -2 25 0 6 3 1 5 -13 5 -14 0 -19 -2 -12 -5z"/>
<path d="M10772 4573 c40 -4 47 -7 53 -30 8 -33 15 -26 8 10 -5 26 -8 27 -57
25 l-51 -2 47 -3z"/>
<path d="M10652 4540 c0 -14 2 -19 5 -12 2 6 2 18 0 25 -3 6 -5 1 -5 -13z"/>
<path d="M11070 4530 c0 -5 5 -10 11 -10 5 0 7 5 4 10 -3 6 -8 10 -11 10 -2 0
-4 -4 -4 -10z"/>
<path d="M10654 4310 c0 -113 2 -159 3 -102 2 56 2 148 0 205 -1 56 -3 10 -3
-103z"/>
<path d="M10798 4503 c7 -3 16 -2 19 1 4 3 -2 6 -13 5 -11 0 -14 -3 -6 -6z"/>
<path d="M9770 4441 c0 -6 4 -13 10 -16 6 -3 7 1 4 9 -7 18 -14 21 -14 7z"/>
<path d="M9810 4385 c13 -14 26 -25 28 -25 3 0 -5 11 -18 25 -13 14 -26 25
-28 25 -3 0 5 -11 18 -25z"/>
<path d="M10200 4385 c13 -14 26 -25 28 -25 3 0 -5 11 -18 25 -13 14 -26 25
-28 25 -3 0 5 -11 18 -25z"/>
<path d="M3701 4384 c0 -11 3 -14 6 -6 3 7 2 16 -1 19 -3 4 -6 -2 -5 -13z"/>
<path d="M8512 4340 c0 -19 2 -27 5 -17 2 9 2 25 0 35 -3 9 -5 1 -5 -18z"/>
<path d="M8541 4354 c0 -11 3 -14 6 -6 3 7 2 16 -1 19 -3 4 -6 -2 -5 -13z"/>
<path d="M1893 4325 c0 -22 2 -30 4 -17 2 12 2 30 0 40 -3 9 -5 -1 -4 -23z"/>
<path d="M2482 4258 c-2 -95 -4 -108 -19 -108 -17 0 -18 -18 -15 -265 2 -225
5 -265 17 -265 10 0 16 -11 16 -32 l2 -33 4 30 c3 16 9 32 14 36 13 7 13 521
0 529 -6 3 -12 53 -14 110 l-3 105 -2 -107z m18 -367 c0 -212 -2 -250 -15
-255 -13 -5 -15 25 -15 227 0 128 -3 242 -6 255 -5 18 -2 22 15 22 21 0 21 -2
21 -249z"/>
<path d="M3073 4310 c0 -30 2 -43 4 -27 2 15 2 39 0 55 -2 15 -4 2 -4 -28z"/>
<path d="M3704 4250 c0 -63 1 -89 3 -57 2 31 2 83 0 115 -2 31 -3 5 -3 -58z"/>
<path d="M10247 4349 c7 -7 15 -10 18 -7 3 3 -2 9 -12 12 -14 6 -15 5 -6 -5z"/>
<path d="M12397 4339 c7 -7 15 -10 18 -7 3 3 -2 9 -12 12 -14 6 -15 5 -6 -5z"/>
<path d="M9920 4268 l5 -73 3 65 c2 36 8 68 15 72 8 5 5 8 -8 8 -19 0 -20 -5
-15 -72z"/>
<path d="M10298 4128 c1 -117 4 -219 7 -225 2 -7 16 -13 30 -13 l25 0 0 219
c0 233 0 231 -48 231 -15 0 -17 -20 -14 -212z m52 -13 c0 -169 -2 -205 -14
-205 -17 0 -28 146 -24 307 3 90 5 103 21 103 16 0 17 -16 17 -205z"/>
<path d="M8542 4310 c0 -14 2 -19 5 -12 2 6 2 18 0 25 -3 6 -5 1 -5 -13z"/>
<path d="M7872 4300 c0 -14 2 -19 5 -12 2 6 2 18 0 25 -3 6 -5 1 -5 -13z"/>
<path d="M12462 4163 c0 -87 3 -143 5 -125 9 66 23 29 23 -59 0 -77 -2 -90
-15 -85 -8 3 -15 1 -15 -5 0 -6 8 -9 18 -7 15 3 17 23 20 221 2 212 2 217 -18
217 -19 0 -20 -6 -18 -157z m16 -63 c-4 -8 -7 37 -6 100 l2 115 6 -100 c3 -55
2 -107 -2 -115z"/>
<path d="M6053 4210 c0 -41 2 -58 4 -37 2 20 2 54 0 75 -2 20 -4 3 -4 -38z"/>
<path d="M7273 4210 c0 -41 2 -58 4 -37 2 20 2 54 0 75 -2 20 -4 3 -4 -38z"/>
<path d="M8543 4235 c0 -27 2 -38 4 -22 2 15 2 37 0 50 -2 12 -4 0 -4 -28z"/>
<path d="M9400 4259 c0 -5 5 -7 10 -4 6 3 10 8 10 11 0 2 -4 4 -10 4 -5 0 -10
-5 -10 -11z"/>
<path d="M5453 4220 c0 -25 2 -35 4 -22 2 12 2 32 0 45 -2 12 -4 2 -4 -23z"/>
<path d="M6673 4215 c0 -22 2 -30 4 -17 2 12 2 30 0 40 -3 9 -5 -1 -4 -23z"/>
<path d="M3071 4194 c0 -11 3 -14 6 -6 3 7 2 16 -1 19 -3 4 -6 -2 -5 -13z"/>
<path d="M9951 4164 c0 -11 3 -14 6 -6 3 7 2 16 -1 19 -3 4 -6 -2 -5 -13z"/>
<path d="M10008 4173 c7 -3 16 -2 19 1 4 3 -2 6 -13 5 -11 0 -14 -3 -6 -6z"/>
<path d="M1890 4162 c0 -9 -53 -12 -195 -12 -179 0 -195 -1 -195 -17 0 -16 11
-18 120 -15 66 2 120 7 120 13 0 5 33 9 74 9 68 0 99 10 82 27 -3 4 -6 1 -6
-5z m-217 -29 c-29 -2 -78 -2 -110 0 -32 2 -8 3 52 3 61 0 87 -1 58 -3z"/>
<path d="M3062 4155 c-11 -12 -10 -15 3 -15 8 0 15 7 15 15 0 18 -2 18 -18 0z"/>
<path d="M4800 4160 c0 -6 -77 -10 -210 -10 -193 0 -210 -1 -210 -17 0 -16 12
-18 135 -15 76 2 135 7 135 13 0 5 36 9 80 9 64 0 80 3 80 15 0 8 -2 15 -5 15
-3 0 -5 -4 -5 -10z m-222 -27 c-32 -2 -86 -2 -120 0 -35 2 -9 3 57 3 66 0 94
-1 63 -3z"/>
<path d="M5960 4150 l-75 -6 78 -2 c46 -1 77 2 77 8 0 6 -1 9 -2 8 -2 -1 -37
-4 -78 -8z"/>
<path d="M8505 4150 c-3 -5 -1 -10 4 -10 6 0 11 5 11 10 0 6 -2 10 -4 10 -3 0
-8 -4 -11 -10z"/>
<path d="M10179 4143 c-13 -16 -12 -17 4 -4 9 7 17 15 17 17 0 8 -8 3 -21 -13z"/>
<path d="M318 4143 c7 -3 16 -2 19 1 4 3 -2 6 -13 5 -11 0 -14 -3 -6 -6z"/>
<path d="M490 4135 c0 -8 5 -15 10 -15 6 0 10 5 10 10 0 6 40 9 103 8 l102 -2
-95 -6 -95 -6 103 -2 c85 -2 102 1 102 13 0 13 -20 15 -120 15 -100 0 -120 -2
-120 -15z"/>
<path d="M920 4135 c0 -8 5 -15 10 -15 6 0 10 5 10 10 0 6 40 9 103 8 l102 -2
-100 -6 -100 -6 108 -2 c89 -2 107 0 107 13 0 13 -20 15 -120 15 -100 0 -120
-2 -120 -15z"/>
<path d="M1290 3886 l0 -264 30 -4 29 -4 3 180 c2 100 2 220 0 269 l-3 87 -29
0 -30 0 0 -264z m50 -1 c0 -220 -2 -255 -15 -255 -13 0 -15 33 -15 233 0 127
-3 242 -6 255 -5 18 -2 22 15 22 21 0 21 -2 21 -255z"/>
<path d="M2070 4135 c0 -13 21 -15 130 -15 75 0 130 4 130 9 0 6 24 12 53 14
28 2 -30 4 -130 5 -157 2 -183 0 -183 -13z m188 -2 c-32 -2 -86 -2 -120 0 -35
2 -9 3 57 3 66 0 94 -1 63 -3z"/>
<path d="M2655 4140 c-13 -21 8 -25 134 -22 106 3 131 6 131 18 0 11 -23 14
-129 14 -76 0 -132 -4 -136 -10z m193 -7 c-32 -2 -86 -2 -120 0 -35 2 -9 3 57
3 66 0 94 -1 63 -3z"/>
<path d="M3250 4133 c0 -17 13 -18 150 -15 87 2 148 7 145 12 -3 5 29 11 72
13 43 1 -22 4 -144 5 -206 2 -223 1 -223 -15z m208 0 c-38 -2 -98 -2 -135 0
-38 2 -7 3 67 3 74 0 105 -1 68 -3z"/>
<path d="M4980 4133 c0 -17 13 -18 150 -15 86 2 150 7 150 13 0 5 27 9 59 9
l59 0 2 -282 c0 -155 5 -285 10 -288 5 -3 10 -23 13 -45 l4 -40 1 44 c2 33 5
42 17 38 12 -5 15 24 17 201 2 114 2 246 0 295 l-3 87 -239 0 c-222 0 -240 -1
-240 -17z m212 0 c-40 -2 -103 -2 -140 0 -37 2 -4 3 73 3 77 0 107 -2 67 -3z
m249 -5 c-1 -5 -1 -129 -1 -278 0 -233 -2 -270 -15 -270 -13 0 -15 38 -15 281
0 248 2 280 16 277 8 -2 15 -6 15 -10z"/>
<path d="M5607 4143 c-19 -19 5 -23 131 -23 117 0 139 2 139 15 0 13 -22 15
-132 15 -72 0 -135 -3 -138 -7z m191 -10 c-32 -2 -86 -2 -120 0 -35 2 -9 3 57
3 66 0 94 -1 63 -3z"/>
<path d="M6207 4143 c-4 -3 -7 -16 -6 -27 0 -12 3 -15 6 -8 3 9 43 12 149 12
121 0 144 2 144 15 0 13 -23 15 -143 15 -79 0 -147 -3 -150 -7z m211 -10 c-38
-2 -98 -2 -135 0 -38 2 -7 3 67 3 74 0 105 -1 68 -3z"/>
<path d="M6597 4143 c22 -4 22 -4 23 -286 0 -155 5 -284 10 -287 4 -3 10 -23
13 -45 l4 -40 1 44 c2 33 5 42 17 38 12 -5 15 24 17 201 2 114 2 246 0 295
l-3 87 -52 -1 c-29 -1 -42 -4 -30 -6z m63 -289 c0 -237 -2 -274 -15 -274 -13
0 -15 37 -15 273 0 151 3 277 6 280 20 20 24 -30 24 -279z"/>
<path d="M6820 4133 c0 -16 12 -18 135 -15 74 2 135 7 135 12 0 5 19 11 43 13
23 2 -38 4 -135 5 -164 2 -178 1 -178 -15z m203 0 c-35 -2 -91 -2 -125 0 -35
2 -7 3 62 3 69 0 97 -1 63 -3z"/>
<path d="M7430 4133 c0 -17 13 -18 148 -15 122 2 149 6 149 17 0 13 -26 15
-149 15 -134 0 -148 -2 -148 -17z m212 0 c-40 -2 -103 -2 -140 0 -37 2 -4 3
73 3 77 0 107 -2 67 -3z"/>
<path d="M7840 3860 c0 -159 3 -290 7 -291 5 0 18 -2 31 -3 l22 -3 1 206 c1
386 2 380 -43 381 -15 0 -17 -24 -18 -290z m48 -3 c2 -275 2 -277 -19 -277
-20 0 -21 2 -18 268 1 147 4 273 7 280 2 7 10 11 16 9 8 -3 12 -86 14 -280z"/>
<path d="M8051 4123 c0 -16 3 -22 6 -15 3 9 41 12 138 12 109 0 134 3 139 15
5 13 -15 15 -139 15 l-145 0 1 -27z m207 10 c-38 -2 -98 -2 -135 0 -38 2 -7 3
67 3 74 0 105 -1 68 -3z"/>
<path d="M7271 4053 c0 -46 2 -83 7 -83 4 0 6 26 4 57 -5 101 -9 111 -11 26z"/>
<path d="M9920 4121 c0 -5 -12 -14 -27 -19 l-28 -10 33 -1 c26 -1 32 3 32 19
0 11 -2 20 -5 20 -3 0 -5 -4 -5 -9z"/>
<path d="M1893 4085 c0 -22 2 -30 4 -17 2 12 2 30 0 40 -3 9 -5 -1 -4 -23z"/>
<path d="M4804 3995 c0 -71 1 -99 3 -62 2 37 2 96 0 130 -2 34 -3 4 -3 -68z"/>
<path d="M6051 4048 c0 -43 2 -78 7 -78 4 0 6 24 4 52 -5 95 -9 104 -11 26z"/>
<path d="M1912 4080 c0 -19 2 -27 5 -17 2 9 2 25 0 35 -3 9 -5 1 -5 -18z"/>
<path d="M8544 3900 c0 -118 2 -167 3 -107 2 59 2 155 0 215 -1 59 -3 10 -3
-108z"/>
<path d="M3701 4091 c-1 -8 -8 -11 -21 -8 -20 5 -20 -2 -23 -681 -2 -378 -4
-727 -5 -776 -1 -132 -11 -126 178 -126 l160 0 0 29 c0 16 3 38 6 48 5 17 5
17 -6 1 -9 -16 -28 -18 -139 -18 l-129 0 -6 26 c-4 15 -6 100 -5 190 l3 163
65 4 66 3 -67 2 -66 2 0 535 0 535 44 0 c37 0 44 3 44 20 0 19 7 20 135 20
128 0 135 -1 135 -20 0 -17 7 -20 45 -20 l45 0 -1 -652 c-1 -359 -1 -699 0
-755 l1 -103 30 0 30 0 0 785 0 785 -32 0 c-18 1 -133 0 -255 0 -171 -1 -222
2 -226 12 -4 10 -6 10 -6 -1z m76 -46 c2 -11 0 -14 -3 -7 -5 10 -9 10 -22 0
-12 -11 -16 -11 -20 0 -3 10 -7 10 -18 1 -12 -10 -14 -128 -14 -750 l0 -739
140 0 c118 0 140 -2 140 -15 0 -13 -24 -15 -155 -15 l-155 0 0 776 0 776 52
-4 c44 -3 53 -6 55 -23z m423 -608 c0 -348 3 -696 7 -774 6 -141 6 -143 -16
-143 l-21 0 0 755 0 755 -40 0 c-31 0 -40 4 -40 18 0 14 10 17 55 19 l55 2 0
-632z"/>
<path d="M318 4043 c7 -3 16 -2 19 1 4 3 -2 6 -13 5 -11 0 -14 -3 -6 -6z"/>
<path d="M6774 4018 l-19 -23 23 19 c12 11 22 21 22 23 0 8 -8 2 -26 -19z"/>
<path d="M8009 4023 c-13 -16 -12 -17 4 -4 16 13 21 21 13 21 -2 0 -10 -8 -17
-17z"/>
<path d="M8870 3780 l0 -230 273 0 272 0 -5 77 -5 78 -3 -72 -3 -73 -260 0
-259 0 2 218 3 217 258 3 257 2 0 -85 c0 -78 2 -85 20 -85 17 0 19 8 22 83 l3
82 143 0 c78 0 142 3 142 8 0 4 -193 7 -430 7 l-430 0 0 -230z m560 135 c0
-43 -4 -75 -10 -75 -6 0 -10 32 -10 75 0 43 4 75 10 75 6 0 10 -32 10 -75z"/>
<path d="M1895 3640 c0 -195 1 -275 2 -178 2 98 2 258 0 355 -1 98 -2 18 -2
-177z"/>
<path d="M1910 3980 c0 -6 7 -10 15 -10 8 0 15 2 15 4 0 2 -7 6 -15 10 -8 3
-15 1 -15 -4z"/>
<path d="M1915 3460 c0 -272 1 -384 2 -247 2 136 2 358 0 495 -1 136 -2 24 -2
-248z"/>
<path d="M10652 3608 l3 -343 85 -3 c46 -2 87 -7 90 -11 3 -5 11 -3 18 5 11
12 -2 14 -88 14 l-100 0 0 334 c0 310 1 335 18 339 13 4 11 5 -6 6 l-22 1 2
-342z"/>
<path d="M6052 3443 c-1 -271 1 -493 6 -493 6 0 6 361 -1 810 -1 96 -4 -47 -5
-317z"/>
<path d="M9710 3919 c0 -5 9 -9 20 -9 11 0 20 2 20 4 0 2 -9 6 -20 9 -11 3
-20 1 -20 -4z"/>
<path d="M9798 3913 c23 -2 59 -2 80 0 20 2 1 4 -43 4 -44 0 -61 -2 -37 -4z"/>
<path d="M300 3718 l0 -183 30 0 30 0 0 183 0 182 -30 0 -30 0 0 -182z m35
162 c3 -5 8 -82 12 -170 6 -158 5 -160 -16 -160 -21 0 -21 3 -21 170 0 155 6
191 25 160z"/>
<path d="M7271 3864 c0 -11 3 -14 6 -6 3 7 2 16 -1 19 -3 4 -6 -2 -5 -13z"/>
<path d="M4803 3800 c0 -30 2 -43 4 -27 2 15 2 39 0 55 -2 15 -4 2 -4 -28z"/>
<path d="M3074 3695 c0 -71 1 -99 3 -62 2 37 2 96 0 130 -2 34 -3 4 -3 -68z"/>
<path d="M7273 3780 c0 -25 2 -35 4 -22 2 12 2 32 0 45 -2 12 -4 2 -4 -23z"/>
<path d="M9344 3798 l-19 -23 23 19 c12 11 22 21 22 23 0 8 -8 2 -26 -19z"/>
<path d="M10313 3813 c9 -2 23 -2 30 0 6 3 -1 5 -18 5 -16 0 -22 -2 -12 -5z"/>
<path d="M10209 3763 l-24 -28 28 24 c15 14 27 26 27 28 0 8 -8 1 -31 -24z"/>
<path d="M8704 3758 l-19 -23 23 19 c12 11 22 21 22 23 0 8 -8 2 -26 -19z"/>
<path d="M12320 3766 c0 -2 8 -10 18 -17 15 -13 16 -12 3 4 -13 16 -21 21 -21
13z"/>
<path d="M9408 3713 c6 -2 18 -2 25 0 6 3 1 5 -13 5 -14 0 -19 -2 -12 -5z"/>
<path d="M4804 3575 c0 -71 1 -99 3 -62 2 37 2 96 0 130 -2 34 -3 4 -3 -68z"/>
<path d="M9430 3530 c0 -101 -4 -170 -10 -170 -5 0 -11 30 -13 68 l-3 67 -2
-69 c-2 -52 -6 -72 -19 -82 -15 -11 -12 -11 20 -2 l37 11 0 174 c0 95 -2 173
-5 173 -3 0 -5 -76 -5 -170z"/>
<path d="M12458 3510 l3 -190 -514 0 -515 0 -4 -30 -4 -30 120 3 c67 1 263 1
436 -1 475 -4 522 -3 515 8 -3 6 -1 10 5 10 6 0 8 5 5 10 -4 7 -12 7 -25 0
-12 -6 -205 -10 -523 -10 -440 0 -506 2 -511 15 -5 13 58 15 527 16 293 1 524
3 515 6 -15 4 -18 16 -18 69 0 51 3 64 15 64 13 0 15 18 13 123 -3 113 -4 122
-23 125 -19 3 -20 -2 -17 -188z m19 13 c-2 -32 -3 -6 -3 57 0 63 1 89 3 58 2
-32 2 -84 0 -115z"/>
<path d="M10161 3668 c-1 -16 -15 -18 -150 -18 l-149 0 6 -22 c5 -19 7 -20 10
-5 3 16 23 17 238 17 l234 0 0 -560 0 -560 -280 0 c-226 0 -280 3 -280 13 0
11 52 14 257 16 141 1 261 5 265 7 4 3 8 97 8 210 0 129 4 204 10 204 6 0 10
8 10 18 0 14 -2 15 -10 2 -8 -13 -10 -13 -10 2 0 9 -3 24 -7 34 -4 12 -3 15 5
10 7 -4 12 -2 12 3 0 8 -75 11 -232 10 -128 0 -227 -3 -220 -6 7 -3 12 -23 12
-48 0 -33 -4 -45 -17 -48 -17 -4 -17 -5 0 -6 15 -1 17 -12 17 -80 0 -67 -3
-80 -17 -84 -17 -4 -17 -5 0 -6 14 -1 17 -11 17 -56 0 -45 3 -53 15 -49 10 4
12 10 6 18 -5 6 -10 89 -10 184 l-1 172 194 0 c107 0 196 -3 198 -7 2 -5 1
-88 -2 -186 -3 -97 -2 -177 3 -177 4 0 7 -25 7 -55 l0 -55 -200 0 -200 0 -2
48 -1 47 -6 -46 -6 -45 -53 0 c-53 1 -53 1 -50 -29 l3 -30 288 -3 287 -2 0
575 0 575 -94 0 c-82 0 -95 2 -99 18 -4 16 -5 16 -6 0z"/>
<path d="M2502 3338 l-2 -277 -22 -3 c-23 -3 -23 -6 -28 -173 -3 -93 -4 -216
-2 -272 l3 -103 29 0 29 0 3 103 c2 56 1 305 -2 552 -5 382 -6 408 -8 173z
m-2 -558 c0 -241 -1 -260 -17 -260 -17 0 -18 19 -18 260 0 241 1 260 18 260
16 0 17 -19 17 -260z"/>
<path d="M9870 3593 c0 -5 97 -7 216 -5 l215 3 -3 -53 -3 -53 -202 -3 -203 -2
0 -49 c0 -30 -5 -51 -12 -54 -10 -4 -10 -6 0 -6 9 -1 12 -34 12 -131 l0 -130
178 2 177 2 -172 3 -173 3 0 43 c0 24 6 49 13 56 9 11 9 12 0 7 -10 -5 -13 21
-12 118 l0 126 195 0 194 0 0 -185 0 -185 -210 0 c-115 0 -210 -3 -210 -7 0
-5 100 -6 222 -3 l223 5 1 253 1 252 -223 0 c-123 0 -224 -3 -224 -7z"/>
<path d="M8514 3480 c0 -58 1 -81 3 -52 2 28 2 76 0 105 -2 28 -3 5 -3 -53z"/>
<path d="M490 3551 c0 -6 4 -13 10 -16 6 -3 7 1 4 9 -7 18 -14 21 -14 7z"/>
<path d="M1336 3545 c-3 -8 -1 -15 4 -15 6 0 10 7 10 15 0 8 -2 15 -4 15 -2 0
-6 -7 -10 -15z"/>
<path d="M3071 3544 c0 -11 3 -14 6 -6 3 7 2 16 -1 19 -3 4 -6 -2 -5 -13z"/>
<path d="M7894 3335 c0 -121 2 -169 3 -107 2 62 2 161 0 220 -1 59 -3 8 -3
-113z"/>
<path d="M8868 3423 c-2 -54 -2 -158 0 -230 l3 -133 270 0 269 0 -2 78 -2 77
-3 -72 -4 -73 -259 0 -260 0 0 215 0 215 188 2 c103 2 222 3 265 3 42 0 77 3
77 8 0 4 -121 7 -270 7 l-269 0 -3 -97z"/>
<path d="M7274 3245 c0 -148 2 -211 3 -138 2 72 2 194 0 270 -1 76 -3 17 -3
-132z"/>
<path d="M3952 3470 c0 -14 2 -19 5 -12 2 6 2 18 0 25 -3 6 -5 1 -5 -13z"/>
<path d="M254 3448 l-19 -23 23 19 c21 18 27 26 19 26 -2 0 -12 -10 -23 -22z"/>
<path d="M3074 3200 c0 -140 2 -198 3 -127 2 70 2 184 0 255 -1 70 -3 12 -3
-128z"/>
<path d="M5422 3420 c0 -19 2 -27 5 -17 2 9 2 25 0 35 -3 9 -5 1 -5 -18z"/>
<path d="M6643 3360 c0 -47 2 -66 4 -42 2 23 2 61 0 85 -2 23 -4 4 -4 -43z"/>
<path d="M3952 3345 c0 -16 2 -22 5 -12 2 9 2 23 0 30 -3 6 -5 -1 -5 -18z"/>
<path d="M6670 3215 c0 -162 0 -163 -42 -156 -5 0 -8 -77 -8 -173 0 -130 -3
-176 -12 -179 -10 -4 -10 -6 0 -6 9 -1 12 -27 12 -96 l0 -95 30 0 30 0 0 430
c0 237 -2 430 -5 430 -3 0 -5 -70 -5 -155z m-2 -435 c0 -250 0 -260 -19 -260
-18 0 -19 10 -19 260 0 248 1 260 19 260 18 0 19 -12 19 -260z"/>
<path d="M8540 2930 c0 -233 2 -421 5 -418 7 7 6 830 0 837 -3 2 -5 -186 -5
-419z"/>
<path d="M5423 3275 c0 -27 2 -38 4 -22 2 15 2 37 0 50 -2 12 -4 0 -4 -28z"/>
<path d="M11033 3263 c9 -2 23 -2 30 0 6 3 -1 5 -18 5 -16 0 -22 -2 -12 -5z"/>
<path d="M12693 3263 c9 -2 23 -2 30 0 6 3 -1 5 -18 5 -16 0 -22 -2 -12 -5z"/>
<path d="M4802 3220 c0 -14 2 -19 5 -12 2 6 2 18 0 25 -3 6 -5 1 -5 -13z"/>
<path d="M9408 3233 c6 -2 18 -2 25 0 6 3 1 5 -13 5 -14 0 -19 -2 -12 -5z"/>
<path d="M1894 3070 c0 -58 1 -81 3 -52 2 28 2 76 0 105 -2 28 -3 5 -3 -53z"/>
<path d="M5451 3154 c0 -11 3 -14 6 -6 3 7 2 16 -1 19 -3 4 -6 -2 -5 -13z"/>
<path d="M4034 3078 l-19 -23 23 19 c12 11 22 21 22 23 0 8 -8 2 -26 -19z"/>
<path d="M10652 2788 l3 -313 2 307 c3 281 5 307 21 311 13 4 11 5 -5 6 l-23
1 2 -312z"/>
<path d="M12448 3073 c8 -3 12 -39 13 -126 1 -67 4 -112 6 -99 2 12 11 22 20
22 10 0 13 6 9 16 -3 9 -6 56 -6 105 l0 89 -27 -1 c-16 0 -22 -3 -15 -6z m29
-140 c-2 -27 -3 -5 -3 47 0 52 1 74 3 48 2 -27 2 -69 0 -95z"/>
<path d="M7873 3059 c-26 -10 -25 10 -23 -311 l1 -207 -153 -4 -153 -3 153 -2
c93 -1 152 -6 152 -12 0 -5 14 -10 30 -10 l31 0 -2 263 c-1 144 -4 269 -8 278
-4 12 -12 14 -28 8z m17 -151 c0 -73 3 -190 7 -260 6 -126 6 -128 -15 -128
-22 0 -22 0 -22 260 0 224 2 260 15 260 13 0 15 -21 15 -132z"/>
<path d="M5398 2883 c-5 -323 -5 -348 0 -360 2 -7 17 -13 33 -13 l29 0 0 275
0 275 -30 0 -30 0 -2 -177z m45 -82 c6 -250 4 -281 -19 -281 -12 0 -14 45 -14
260 0 211 3 260 13 260 11 0 15 -48 20 -239z"/>
<path d="M310 2973 c0 -6 -10 -14 -22 -16 l-23 -4 23 -2 c13 0 20 -5 17 -11
-4 -6 167 -11 485 -12 452 -3 490 -2 490 14 0 9 2 22 5 30 4 11 -81 13 -485
13 -370 0 -490 -3 -490 -12z m960 -18 c0 -13 -59 -15 -475 -15 -416 0 -475 2
-475 15 0 13 59 15 475 15 416 0 475 -2 475 -15z"/>
<path d="M1607 2982 c6 -4 13 -30 16 -57 l3 -50 2 58 c2 48 -1 57 -15 57 -12
0 -14 -3 -6 -8z"/>
<path d="M1580 2963 c8 -3 19 -11 23 -17 6 -7 7 -6 4 4 -2 8 -12 16 -23 17
-13 2 -15 1 -4 -4z"/>
<path d="M88 2953 c7 -3 16 -2 19 1 4 3 -2 6 -13 5 -11 0 -14 -3 -6 -6z"/>
<path d="M148 2953 c18 -2 45 -2 60 0 15 2 0 4 -33 4 -33 0 -45 -2 -27 -4z"/>
<path d="M8512 2935 c0 -16 2 -22 5 -12 2 9 2 23 0 30 -3 6 -5 -1 -5 -18z"/>
<path d="M3853 2910 c0 -25 2 -35 4 -22 2 12 2 32 0 45 -2 12 -4 2 -4 -23z"/>
<path d="M4804 2855 c0 -49 1 -71 3 -48 2 23 2 64 0 90 -2 26 -3 8 -3 -42z"/>
<path d="M1892 2910 c0 -14 2 -19 5 -12 2 6 2 18 0 25 -3 6 -5 1 -5 -13z"/>
<path d="M1914 2790 c0 -80 2 -112 3 -72 2 39 2 105 0 145 -1 39 -3 7 -3 -73z"/>
<path d="M7272 2813 c-2 -111 0 -123 16 -123 12 0 13 3 5 8 -8 5 -13 46 -16
122 l-3 115 -2 -122z"/>
<path d="M3818 2893 c7 -3 16 -2 19 1 4 3 -2 6 -13 5 -11 0 -14 -3 -6 -6z"/>
<path d="M10831 2884 c0 -11 3 -14 6 -6 3 7 2 16 -1 19 -3 4 -6 -2 -5 -13z"/>
<path d="M10961 2874 c0 -11 3 -14 6 -6 3 7 2 16 -1 19 -3 4 -6 -2 -5 -13z"/>
<path d="M1601 2843 c-1 -24 13 -31 25 -11 4 6 3 8 -4 4 -6 -3 -13 2 -15 11
-4 14 -5 13 -6 -4z"/>
<path d="M6053 2770 c0 -47 2 -66 4 -42 2 23 2 61 0 85 -2 23 -4 4 -4 -43z"/>
<path d="M9325 2819 c-4 -6 -5 -12 -2 -15 2 -3 7 2 10 11 7 17 1 20 -8 4z"/>
<path d="M10832 2793 c-2 -35 1 -43 16 -43 11 0 13 3 5 8 -6 4 -13 23 -16 42
-4 33 -4 33 -5 -7z"/>
<path d="M3073 2785 c0 -22 2 -30 4 -17 2 12 2 30 0 40 -3 9 -5 -1 -4 -23z"/>
<path d="M10914 2788 l-19 -23 23 19 c21 18 27 26 19 26 -2 0 -12 -10 -23 -22z"/>
<path d="M9311 2774 c0 -11 3 -14 6 -6 3 7 2 16 -1 19 -3 4 -6 -2 -5 -13z"/>
<path d="M9363 2763 c35 -4 37 -6 39 -41 l1 -37 4 35 c3 19 10 38 16 42 7 4
-13 7 -43 6 -43 -1 -46 -2 -17 -5z"/>
<path d="M3071 2724 c0 -11 3 -14 6 -6 3 7 2 16 -1 19 -3 4 -6 -2 -5 -13z"/>
<path d="M2879 2703 l-24 -28 28 24 c25 23 32 31 24 31 -2 0 -14 -12 -28 -27z"/>
<path d="M5015 2700 c10 -11 20 -20 23 -20 3 0 -3 9 -13 20 -10 11 -20 20 -23
20 -3 0 3 -9 13 -20z"/>
<path d="M7669 2703 c-13 -16 -12 -17 4 -4 9 7 17 15 17 17 0 8 -8 3 -21 -13z"/>
<path d="M8289 2703 c-13 -16 -12 -17 4 -4 9 7 17 15 17 17 0 8 -8 3 -21 -13z"/>
<path d="M9782 2700 c0 -14 2 -19 5 -12 2 6 2 18 0 25 -3 6 -5 1 -5 -13z"/>
<path d="M12469 2697 c4 -4 46 -7 92 -5 l84 3 -92 5 c-51 3 -89 1 -84 -3z"/>
<path d="M3073 2665 c0 -22 2 -30 4 -17 2 12 2 30 0 40 -3 9 -5 -1 -4 -23z"/>
<path d="M7314 2615 c0 -49 1 -71 3 -48 2 23 2 64 0 90 -2 26 -3 8 -3 -42z"/>
<path d="M11318 2693 c117 -2 306 -2 420 0 114 1 18 2 -213 2 -231 0 -324 -1
-207 -2z"/>
<path d="M11968 2693 c6 -2 18 -2 25 0 6 3 1 5 -13 5 -14 0 -19 -2 -12 -5z"/>
<path d="M12018 2693 c6 -2 18 -2 25 0 6 3 1 5 -13 5 -14 0 -19 -2 -12 -5z"/>
<path d="M12060 2696 c0 -2 9 -6 20 -9 11 -3 18 -1 14 4 -5 9 -34 13 -34 5z"/>
<path d="M12668 2693 c12 -2 32 -2 45 0 12 2 2 4 -23 4 -25 0 -35 -2 -22 -4z"/>
<path d="M240 2686 c0 -2 8 -10 18 -17 15 -13 16 -12 3 4 -13 16 -21 21 -21
13z"/>
<path d="M3108 2683 c7 -3 16 -2 19 1 4 3 -2 6 -13 5 -11 0 -14 -3 -6 -6z"/>
<path d="M3142 2665 c0 -16 2 -22 5 -12 2 9 2 23 0 30 -3 6 -5 -1 -5 -18z"/>
<path d="M4039 2663 l-24 -28 28 24 c25 23 32 31 24 31 -2 0 -14 -12 -28 -27z"/>
<path d="M4872 2670 c0 -14 2 -19 5 -12 2 6 2 18 0 25 -3 6 -5 1 -5 -13z"/>
<path d="M6102 2670 c0 -14 2 -19 5 -12 2 6 2 18 0 25 -3 6 -5 1 -5 -13z"/>
<path d="M10110 2680 l-85 -6 93 -2 c60 -1 91 2 87 8 -3 6 -7 9 -8 8 -1 -1
-40 -5 -87 -8z"/>
<path d="M12113 2645 c0 -27 2 -38 4 -22 2 15 2 37 0 50 -2 12 -4 0 -4 -28z"/>
<path d="M3534 2648 l-29 -33 33 29 c17 17 32 31 32 33 0 8 -8 1 -36 -29z"/>
<path d="M4802 2660 c0 -14 2 -19 5 -12 2 6 2 18 0 25 -3 6 -5 1 -5 -13z"/>
<path d="M8020 2655 c13 -14 26 -25 28 -25 3 0 -5 11 -18 25 -13 14 -26 25
-28 25 -3 0 5 -11 18 -25z"/>
<path d="M9659 2663 c-13 -16 -12 -17 4 -4 9 7 17 15 17 17 0 8 -8 3 -21 -13z"/>
<path d="M2798 2663 c7 -3 16 -2 19 1 4 3 -2 6 -13 5 -11 0 -14 -3 -6 -6z"/>
<path d="M4335 2650 c10 -11 20 -20 23 -20 3 0 -3 9 -13 20 -10 11 -20 20 -23
20 -3 0 3 -9 13 -20z"/>
<path d="M5274 2648 l-19 -23 23 19 c12 11 22 21 22 23 0 8 -8 2 -26 -19z"/>
<path d="M6494 2648 l-19 -23 23 19 c12 11 22 21 22 23 0 8 -8 2 -26 -19z"/>
<path d="M6780 2666 c0 -2 8 -10 18 -17 15 -13 16 -12 3 4 -13 16 -21 21 -21
13z"/>
<path d="M9782 2645 c0 -16 2 -22 5 -12 2 9 2 23 0 30 -3 6 -5 -1 -5 -18z"/>
<path d="M11080 2660 c-13 -8 -12 -10 3 -10 9 0 17 5 17 10 0 12 -1 12 -20 0z"/>
<path d="M1307 2629 c7 -7 15 -10 18 -7 3 3 -2 9 -12 12 -14 6 -15 5 -6 -5z"/>
<path d="M8483 2633 c9 -2 23 -2 30 0 6 3 -1 5 -18 5 -16 0 -22 -2 -12 -5z"/>
<path d="M3141 2614 c0 -11 3 -14 6 -6 3 7 2 16 -1 19 -3 4 -6 -2 -5 -13z"/>
<path d="M4005 2619 c-4 -6 -5 -12 -2 -15 2 -3 7 2 10 11 7 17 1 20 -8 4z"/>
<path d="M6465 2609 c-4 -6 -5 -12 -2 -15 2 -3 7 2 10 11 7 17 1 20 -8 4z"/>
<path d="M9781 2594 c0 -11 3 -14 6 -6 3 7 2 16 -1 19 -3 4 -6 -2 -5 -13z"/>
<path d="M3142 2550 c-1 -25 2 -40 6 -33 5 8 49 13 137 16 l130 3 -132 2 -132
2 -4 28 c-3 17 -4 11 -5 -18z"/>
<path d="M4871 2552 c-1 -36 1 -41 13 -30 8 7 10 15 6 18 -4 3 -10 16 -13 30
-3 16 -5 10 -6 -18z"/>
<path d="M294 2568 c-5 -7 -3 -8 6 -3 7 4 16 2 21 -6 7 -11 9 -10 9 4 0 19
-25 23 -36 5z"/>
<path d="M4800 2555 c0 -12 -22 -15 -132 -17 l-133 -2 130 -3 c88 -3 132 -8
137 -16 5 -7 8 1 8 21 0 17 -2 32 -5 32 -3 0 -5 -7 -5 -15z"/>
<path d="M6101 2540 c0 -20 3 -30 7 -23 5 8 48 13 132 16 l125 3 -127 2 c-111
2 -127 4 -131 20 -3 9 -5 1 -6 -18z"/>
<path d="M9612 2545 c0 -16 2 -22 5 -12 2 9 2 23 0 30 -3 6 -5 -1 -5 -18z"/>
<path d="M1961 2520 c1 -16 3 -19 6 -8 4 15 21 18 126 20 l122 3 -128 5 -127
5 1 -25z"/>
<path d="M6910 2540 l-35 -7 38 -2 c20 0 37 4 37 9 0 6 -1 9 -2 9 -2 -1 -19
-5 -38 -9z"/>
<path d="M8340 2540 l-125 -5 128 -5 c71 -3 131 -2 133 2 8 12 -9 13 -136 8z"/>
<path d="M2281 2524 c0 -11 3 -14 6 -6 3 7 2 16 -1 19 -3 4 -6 -2 -5 -13z"/>
<path d="M2910 2533 c108 -3 156 -7 162 -16 5 -8 8 -7 8 6 0 16 -14 17 -162
15 l-163 -2 155 -3z"/>
<path d="M4448 2533 c18 -2 45 -2 60 0 15 2 0 4 -33 4 -33 0 -45 -2 -27 -4z"/>
<path d="M4978 2533 c39 -2 105 -2 145 0 39 1 7 3 -73 3 -80 0 -112 -2 -72 -3z"/>
<path d="M5753 2533 c53 -2 141 -2 195 0 53 1 9 3 -98 3 -107 0 -151 -2 -97
-3z"/>
<path d="M6841 2524 c0 -11 3 -14 6 -6 3 7 2 16 -1 19 -3 4 -6 -2 -5 -13z"/>
<path d="M7033 2533 c43 -2 110 -2 150 0 40 1 5 3 -78 3 -82 0 -115 -2 -72 -3z"/>
<path d="M8133 2533 c15 -2 39 -2 55 0 15 2 2 4 -28 4 -30 0 -43 -2 -27 -4z"/>
<path d="M8650 2526 c0 -8 -12 -17 -27 -19 -26 -4 -26 -4 5 -6 26 -1 32 3 32
19 0 11 -2 20 -5 20 -3 0 -5 -6 -5 -14z"/>
<path d="M302 2463 c-2 -68 0 -73 19 -73 11 0 17 5 14 10 -4 6 -10 8 -15 5 -5
-3 -11 25 -13 62 l-3 68 -2 -72z"/>
<path d="M322 2485 c0 -16 2 -22 5 -12 2 9 2 23 0 30 -3 6 -5 -1 -5 -18z"/>
<path d="M10803 2425 c0 -33 2 -45 4 -27 2 18 2 45 0 60 -2 15 -4 0 -4 -33z"/>
<path d="M10823 2425 c0 -33 2 -45 4 -27 2 18 2 45 0 60 -2 15 -4 0 -4 -33z"/>
<path d="M951 2434 c0 -11 3 -14 6 -6 3 7 2 16 -1 19 -3 4 -6 -2 -5 -13z"/>
<path d="M320 2430 c0 -5 5 -10 11 -10 5 0 7 5 4 10 -3 6 -8 10 -11 10 -2 0
-4 -4 -4 -10z"/>
<path d="M1460 2416 c0 -2 8 -10 18 -17 15 -13 16 -12 3 4 -13 16 -21 21 -21
13z"/>
<path d="M11401 2404 c0 -11 3 -14 6 -6 3 7 2 16 -1 19 -3 4 -6 -2 -5 -13z"/>
<path d="M11548 2393 c7 -3 16 -2 19 1 4 3 -2 6 -13 5 -11 0 -14 -3 -6 -6z"/>
<path d="M1500 2376 c0 -2 8 -10 18 -17 15 -13 16 -12 3 4 -13 16 -21 21 -21
13z"/>
<path d="M10930 2325 c13 -14 26 -25 28 -25 3 0 -5 11 -18 25 -13 14 -26 25
-28 25 -3 0 5 -11 18 -25z"/>
<path d="M1578 2333 c7 -3 16 -2 19 1 4 3 -2 6 -13 5 -11 0 -14 -3 -6 -6z"/>
<path d="M1613 2285 c0 -27 2 -38 4 -22 2 15 2 37 0 50 -2 12 -4 0 -4 -28z"/>
<path d="M429 2293 l-24 -28 28 24 c25 23 32 31 24 31 -2 0 -14 -12 -28 -27z"/>
<path d="M298 2033 c-2 -123 1 -230 7 -245 l9 -28 496 0 c307 0 489 4 480 10
-10 6 2 10 40 13 l55 3 -52 2 c-42 2 -51 5 -47 17 4 9 1 15 -7 15 -8 0 -229 0
-491 0 l-478 0 0 80 c0 86 17 110 23 33 3 -47 3 -47 5 10 2 45 -1 57 -13 57
-13 0 -15 19 -14 119 1 103 3 120 17 124 12 3 10 5 -5 6 l-23 1 -2 -217z m962
-238 c0 -13 -59 -15 -469 -15 -408 0 -470 2 -475 15 -5 13 51 15 469 15 416 0
475 -2 475 -15z"/>
<path d="M10981 2234 c0 -11 3 -14 6 -6 3 7 2 16 -1 19 -3 4 -6 -2 -5 -13z"/>
<path d="M1613 2195 c0 -22 2 -30 4 -17 2 12 2 30 0 40 -3 9 -5 -1 -4 -23z"/>
<path d="M12110 2218 c0 -15 8 -18 53 -16 l52 1 -45 4 c-24 3 -48 10 -52 16
-5 8 -8 6 -8 -5z"/>
<path d="M1831 2183 c1 -22 2 -23 6 -8 3 11 10 23 17 27 7 5 5 8 -6 8 -13 0
-18 -7 -17 -27z"/>
<path d="M2233 2203 c20 -2 54 -2 75 0 20 2 3 4 -38 4 -41 0 -58 -2 -37 -4z"/>
<path d="M2543 2203 c15 -2 39 -2 55 0 15 2 2 4 -28 4 -30 0 -43 -2 -27 -4z"/>
<path d="M2800 2193 c0 -12 3 -14 8 -6 4 6 21 13 37 16 27 4 27 4 -7 6 -30 1
-38 -3 -38 -16z"/>
<path d="M3158 2203 c6 -2 18 -2 25 0 6 3 1 5 -13 5 -14 0 -19 -2 -12 -5z"/>
<path d="M3208 2203 c7 -3 16 -2 19 1 4 3 -2 6 -13 5 -11 0 -14 -3 -6 -6z"/>
<path d="M3538 2173 c6 -65 10 -70 11 -15 0 28 -3 52 -7 52 -4 0 -6 -17 -4
-37z"/>
<path d="M3753 2203 c9 -2 23 -2 30 0 6 3 -1 5 -18 5 -16 0 -22 -2 -12 -5z"/>
<path d="M4278 2203 c7 -3 16 -2 19 1 4 3 -2 6 -13 5 -11 0 -14 -3 -6 -6z"/>
<path d="M4353 2203 c9 -2 23 -2 30 0 6 3 -1 5 -18 5 -16 0 -22 -2 -12 -5z"/>
<path d="M4538 2203 c28 -2 76 -2 105 0 28 2 5 3 -53 3 -58 0 -81 -1 -52 -3z"/>
<path d="M4768 2203 c7 -3 16 -2 19 1 4 3 -2 6 -13 5 -11 0 -14 -3 -6 -6z"/>
<path d="M4968 2203 c6 -2 18 -2 25 0 6 3 1 5 -13 5 -14 0 -19 -2 -12 -5z"/>
<path d="M5022 2190 c0 -14 2 -19 5 -12 2 6 2 18 0 25 -3 6 -5 1 -5 -13z"/>
<path d="M5213 2203 c9 -2 25 -2 35 0 9 3 1 5 -18 5 -19 0 -27 -2 -17 -5z"/>
<path d="M5368 2203 c28 -2 76 -2 105 0 28 2 5 3 -53 3 -58 0 -81 -1 -52 -3z"/>
<path d="M5535 2200 c3 -5 8 -10 11 -10 2 0 4 5 4 10 0 6 -5 10 -11 10 -5 0
-7 -4 -4 -10z"/>
<path d="M5893 2203 c9 -2 23 -2 30 0 6 3 -1 5 -18 5 -16 0 -22 -2 -12 -5z"/>
<path d="M6108 2203 c7 -3 16 -2 19 1 4 3 -2 6 -13 5 -11 0 -14 -3 -6 -6z"/>
<path d="M7750 2175 c0 -19 2 -35 4 -35 2 0 6 16 8 35 2 19 0 35 -4 35 -4 0
-8 -16 -8 -35z"/>
<path d="M8507 2203 c18 -2 50 -2 70 0 21 2 7 4 -32 4 -38 0 -55 -2 -38 -4z"/>
<path d="M8683 2203 c9 -2 25 -2 35 0 9 3 1 5 -18 5 -19 0 -27 -2 -17 -5z"/>
<path d="M8843 2203 c59 -2 154 -2 210 0 56 1 8 3 -108 3 -115 0 -161 -2 -102
-3z"/>
<path d="M9408 2203 c72 -2 192 -2 265 0 72 1 13 3 -133 3 -146 0 -205 -2
-132 -3z"/>
<path d="M9970 2193 c0 -13 3 -14 8 -6 5 9 50 13 142 16 l135 3 -142 2 c-130
2 -143 0 -143 -15z"/>
<path d="M10270 2163 l5 -48 3 40 c2 22 9 43 15 47 8 5 5 8 -8 8 -18 0 -20 -5
-15 -47z"/>
<path d="M10598 2203 c7 -3 16 -2 19 1 4 3 -2 6 -13 5 -11 0 -14 -3 -6 -6z"/>
<path d="M10807 2203 c-10 -9 -9 -23 1 -23 5 0 9 7 9 15 0 17 -1 18 -10 8z"/>
<path d="M12225 2188 c1 -13 3 -26 4 -30 0 -5 114 -8 251 -8 216 0 250 2 250
15 0 8 4 15 10 15 5 0 7 7 4 15 -5 13 -44 15 -264 15 l-257 0 2 -22z m495 -8
c0 -19 -7 -20 -240 -20 -233 0 -240 1 -240 20 0 19 7 20 240 20 233 0 240 -1
240 -20z"/>
<path d="M334 2105 c0 -55 1 -76 3 -47 2 29 2 74 0 100 -2 26 -3 2 -3 -53z"/>
<path d="M3153 2145 c0 -27 2 -38 4 -22 2 15 2 37 0 50 -2 12 -4 0 -4 -28z"/>
<path d="M3222 2118 c-2 -75 -2 -77 -29 -81 l-28 -4 28 -2 c35 -1 39 10 34 95
l-3 69 -2 -77z"/>
<path d="M5892 2176 c7 -8 15 -12 17 -11 5 6 -10 25 -20 25 -5 0 -4 -6 3 -14z"/>
<path d="M10610 2151 c0 -16 -6 -32 -12 -34 -8 -3 -6 -6 5 -6 13 -1 17 7 17
34 0 19 -2 35 -5 35 -3 0 -5 -13 -5 -29z"/>
<path d="M10780 2159 c0 -11 4 -18 10 -14 5 3 7 12 3 20 -7 21 -13 19 -13 -6z"/>
<path d="M11505 2170 c3 -5 -2 -10 -12 -11 -10 0 -13 -3 -5 -6 9 -3 12 -63 12
-249 0 -254 -2 -244 38 -244 4 0 9 -100 12 -222 4 -167 6 -101 8 260 l2 482
-31 0 c-17 0 -28 -4 -24 -10z m45 -250 c0 -231 -1 -250 -17 -250 -17 0 -18 17
-15 250 2 212 5 250 17 250 13 0 15 -37 15 -250z"/>
<path d="M6091 2154 c0 -11 3 -14 6 -6 3 7 2 16 -1 19 -3 4 -6 -2 -5 -13z"/>
<path d="M1261 2144 c0 -11 3 -14 6 -6 3 7 2 16 -1 19 -3 4 -6 -2 -5 -13z"/>
<path d="M11093 2153 c59 -2 155 -2 215 0 59 1 10 3 -108 3 -118 0 -167 -2
-107 -3z"/>
<path d="M1450 2125 c0 -8 2 -15 4 -15 2 0 6 7 10 15 3 8 1 15 -4 15 -6 0 -10
-7 -10 -15z"/>
<path d="M6762 2115 c0 -16 2 -22 5 -12 2 9 2 23 0 30 -3 6 -5 -1 -5 -18z"/>
<path d="M10458 2113 c17 -2 47 -2 65 0 17 2 3 4 -33 4 -36 0 -50 -2 -32 -4z"/>
<path d="M6044 2068 l-19 -23 23 19 c21 18 27 26 19 26 -2 0 -12 -10 -23 -22z"/>
<path d="M8419 2063 l-24 -28 28 24 c15 14 27 26 27 28 0 8 -8 1 -31 -24z"/>
<path d="M1409 2053 l-24 -28 28 24 c25 23 32 31 24 31 -2 0 -14 -12 -28 -27z"/>
<path d="M9840 2076 c0 -2 8 -10 18 -17 15 -13 16 -12 3 4 -13 16 -21 21 -21
13z"/>
<path d="M3154 1940 c0 -63 1 -89 3 -57 2 31 2 83 0 115 -2 31 -3 5 -3 -58z"/>
<path d="M3540 2025 c0 -8 4 -15 10 -15 5 0 7 7 4 15 -4 8 -8 15 -10 15 -2 0
-4 -7 -4 -15z"/>
<path d="M5558 2033 c12 -2 30 -2 40 0 9 3 -1 5 -23 4 -22 0 -30 -2 -17 -4z"/>
<path d="M6764 1955 c0 -49 1 -71 3 -48 2 23 2 64 0 90 -2 26 -3 8 -3 -42z"/>
<path d="M7920 2023 c0 -15 2 -16 10 -3 7 11 12 12 18 4 5 -9 11 -8 20 2 11
12 8 14 -18 14 -22 0 -30 -5 -30 -17z"/>
<path d="M10285 2033 c11 -3 23 -10 27 -17 5 -7 8 -5 8 7 0 12 -7 17 -27 16
-22 -1 -23 -2 -8 -6z"/>
<path d="M5930 2020 c0 -5 5 -10 11 -10 5 0 7 5 4 10 -3 6 -8 10 -11 10 -2 0
-4 -4 -4 -10z"/>
<path d="M1613 1955 c0 -38 2 -53 4 -32 2 20 2 52 0 70 -2 17 -4 1 -4 -38z"/>
<path d="M2925 1980 c10 -11 20 -20 23 -20 3 0 -3 9 -13 20 -10 11 -20 20 -23
20 -3 0 3 -9 13 -20z"/>
<path d="M9173 1940 c0 -36 2 -50 4 -32 2 17 2 47 0 65 -2 17 -4 3 -4 -33z"/>
<path d="M5563 1955 c0 -22 2 -30 4 -17 2 12 2 30 0 40 -3 9 -5 -1 -4 -23z"/>
<path d="M10080 1986 c0 -2 8 -10 18 -17 15 -13 16 -12 3 4 -13 16 -21 21 -21
13z"/>
<path d="M10314 1905 c0 -49 1 -71 3 -48 2 23 2 64 0 90 -2 26 -3 8 -3 -42z"/>
<path d="M10588 1953 c7 -3 16 -2 19 1 4 3 -2 6 -13 5 -11 0 -14 -3 -6 -6z"/>
<path d="M5347 1900 c-3 -11 -1 -20 4 -20 5 0 9 9 9 20 0 11 -2 20 -4 20 -2 0
-6 -9 -9 -20z"/>
<path d="M7730 1906 c0 -11 -15 -16 -52 -19 l-53 -3 58 -2 c51 -2 57 0 57 18
0 11 -2 20 -5 20 -3 0 -5 -7 -5 -14z"/>
<path d="M2828 1883 c7 -3 16 -2 19 1 4 3 -2 6 -13 5 -11 0 -14 -3 -6 -6z"/>
<path d="M9988 1883 c7 -3 16 -2 19 1 4 3 -2 6 -13 5 -11 0 -14 -3 -6 -6z"/>
<path d="M10053 1883 c15 -2 39 -2 55 0 15 2 2 4 -28 4 -30 0 -43 -2 -27 -4z"/>
<path d="M10495 1860 c10 -11 20 -20 23 -20 3 0 -3 9 -13 20 -10 11 -20 20
-23 20 -3 0 3 -9 13 -20z"/>
<path d="M163 1813 c9 -2 23 -2 30 0 6 3 -1 5 -18 5 -16 0 -22 -2 -12 -5z"/>
<path d="M218 1813 c6 -2 18 -2 25 0 6 3 1 5 -13 5 -14 0 -19 -2 -12 -5z"/>
<path d="M88 1793 c7 -3 16 -2 19 1 4 3 -2 6 -13 5 -11 0 -14 -3 -6 -6z"/>
<path d="M1530 1791 l-35 -7 38 -5 c26 -4 37 -1 37 8 0 7 -1 12 -2 12 -2 -1
-19 -5 -38 -8z"/>
<path d="M7951 1748 c0 -10 -7 -18 -13 -18 -10 0 -13 -119 -15 -558 0 -306 1
-545 4 -529 9 55 22 25 26 -60 l3 -88 2 88 c1 62 6 87 15 87 9 0 12 113 12
530 0 400 -3 530 -12 530 -6 0 -14 8 -16 18 -4 16 -5 16 -6 0z m19 -546 c0
-454 -2 -519 -15 -519 -13 0 -15 65 -15 519 0 454 2 518 15 518 13 0 15 -64
15 -518z"/>
<path d="M5561 1743 c-1 -7 -7 -13 -13 -13 -10 0 -12 -111 -11 -527 2 -312 7
-529 12 -533 5 -3 11 -26 14 -50 l4 -45 1 48 c2 35 6 47 17 47 14 0 15 59 13
530 -2 395 -6 530 -15 530 -6 0 -14 6 -16 13 -4 10 -6 10 -6 0z m19 -543 c0
-456 -2 -520 -15 -520 -13 0 -15 64 -15 520 0 456 2 520 15 520 13 0 15 -64
15 -520z"/>
<path d="M6752 1734 c-9 -10 -12 -131 -9 -526 l2 -513 3 513 c2 446 4 512 17
512 13 0 15 -66 18 -512 l2 -513 3 513 c1 406 -1 516 -11 526 -10 11 -15 11
-25 0z"/>
<path d="M1969 1730 c-12 -7 -14 -54 -12 -300 1 -160 4 -294 7 -298 3 -3 6
128 6 291 0 256 2 297 15 297 13 0 15 -45 18 -317 l2 -318 3 321 c2 335 1 346
-39 324z"/>
<path d="M2820 1728 c0 -4 16 -8 35 -8 19 0 35 2 35 4 0 2 -16 6 -35 8 -19 2
-35 0 -35 -4z"/>
<path d="M4360 1730 c-11 -7 -19 -1040 -7 -1040 4 0 7 232 7 515 0 454 2 515
15 515 14 0 15 -59 13 -510 -3 -503 -2 -520 25 -520 1 0 1 235 -1 523 -2 517
-3 523 -23 523 -11 0 -24 -3 -29 -6z"/>
<path d="M9138 1732 c-16 -3 -18 -39 -20 -523 -2 -346 0 -519 7 -519 7 0 9
171 7 515 l-4 515 21 0 22 0 -1 -505 c-1 -332 -5 -505 -11 -505 -6 0 -7 -4 -4
-10 22 -35 25 28 25 513 0 413 -3 524 -12 523 -7 0 -21 -2 -30 -4z"/>
<path d="M9987 1729 c7 -7 15 -10 18 -7 3 3 -2 9 -12 12 -14 6 -15 5 -6 -5z"/>
<path d="M10330 1729 c0 -5 7 -9 15 -9 13 0 15 -64 15 -520 0 -507 0 -520 -19
-520 -19 0 -20 8 -18 163 4 323 -3 887 -10 887 -5 0 -6 -291 -3 -647 2 -357 6
-595 8 -530 2 85 6 117 15 116 38 -5 37 -15 37 530 0 520 0 529 -20 534 -11 3
-20 1 -20 -4z"/>
<path d="M3150 1197 l0 -534 23 3 c12 1 25 3 30 3 4 1 7 240 7 531 l0 530 -30
0 -30 0 0 -533z m50 3 c0 -489 -1 -520 -17 -520 -17 0 -18 30 -16 513 1 281 2
515 2 520 1 4 8 7 16 7 13 0 15 -64 15 -520z"/>
<path d="M1651 1464 c0 -11 3 -14 6 -6 3 7 2 16 -1 19 -3 4 -6 -2 -5 -13z"/>
<path d="M1660 1431 c0 -6 4 -13 10 -16 6 -3 7 1 4 9 -7 18 -14 21 -14 7z"/>
<path d="M1680 1396 c0 -2 8 -10 18 -17 15 -13 16 -12 3 4 -13 16 -21 21 -21
13z"/>
<path d="M1472 1248 l-2 -128 178 2 177 2 -172 3 -172 3 -4 123 -3 122 -2
-127z"/>
<path d="M1453 1180 c0 -30 2 -43 4 -27 2 15 2 39 0 55 -2 15 -4 2 -4 -28z"/>
<path d="M5191 1194 c0 -11 3 -14 6 -6 3 7 2 16 -1 19 -3 4 -6 -2 -5 -13z"/>
<path d="M11520 1203 c-13 -3 -15 -34 -12 -216 4 -309 8 -328 10 -44 2 211 4
247 17 247 12 0 15 -37 18 -247 l2 -248 3 256 c2 265 3 261 -38 252z"/>
<path d="M12712 1202 c-9 -7 -12 -68 -10 -273 l3 -264 28 -3 27 -3 0 269 c0
237 -2 271 -16 276 -19 7 -16 7 -32 -2z m38 -272 c0 -241 -1 -260 -17 -260
-17 0 -18 19 -18 260 0 241 1 260 18 260 16 0 17 -19 17 -260z"/>
<path d="M3702 1165 c0 -16 2 -22 5 -12 2 9 2 23 0 30 -3 6 -5 -1 -5 -18z"/>
<path d="M5023 1095 c0 -44 2 -61 4 -37 2 23 2 59 0 80 -2 20 -4 1 -4 -43z"/>
<path d="M1900 1146 c0 -8 -4 -16 -9 -18 -5 -1 -3 -9 5 -16 12 -11 14 -8 14
18 0 16 -2 30 -5 30 -3 0 -5 -6 -5 -14z"/>
<path d="M5176 1143 c-6 -14 -5 -15 5 -6 7 7 10 15 7 18 -3 3 -9 -2 -12 -12z"/>
<path d="M8300 1151 c0 -6 4 -13 10 -16 6 -3 7 1 4 9 -7 18 -14 21 -14 7z"/>
<path d="M1838 1123 c7 -3 16 -2 19 1 4 3 -2 6 -13 5 -11 0 -14 -3 -6 -6z"/>
<path d="M1954 1100 c0 -11 4 -20 8 -20 4 0 8 9 8 20 0 11 -4 20 -8 20 -4 0
-8 -9 -8 -20z"/>
<path d="M5144 1098 l-19 -23 23 19 c12 11 22 21 22 23 0 8 -8 2 -26 -19z"/>
<path d="M10730 1106 c0 -2 8 -10 18 -17 15 -13 16 -12 3 4 -13 16 -21 21 -21
13z"/>
<path d="M3704 900 c0 -80 2 -112 3 -72 2 39 2 105 0 145 -1 39 -3 7 -3 -73z"/>
<path d="M302 848 l3 -183 28 -3 27 -3 0 170 0 171 213 3 212 2 -217 3 -217 2
-6 -32 c-3 -18 -4 -93 -3 -166 3 -120 1 -132 -14 -132 -16 0 -18 15 -18 169
l0 170 28 4 c25 4 25 4 -6 6 l-32 1 2 -182z"/>
<path d="M383 1023 c9 -2 23 -2 30 0 6 3 -1 5 -18 5 -16 0 -22 -2 -12 -5z"/>
<path d="M1448 1019 c-2 -5 -2 -87 0 -182 3 -190 -1 -178 55 -168 11 2 9 339
-3 346 -18 11 -49 14 -52 4z m42 -174 c0 -140 -2 -165 -15 -165 -13 0 -15 25
-15 165 0 140 2 165 15 165 13 0 15 -25 15 -165z"/>
<path d="M1028 1003 c72 -2 192 -2 265 0 72 1 13 3 -133 3 -146 0 -205 -2
-132 -3z"/>
<path d="M805 920 c10 -11 20 -20 23 -20 3 0 -3 9 -13 20 -10 11 -20 20 -23
20 -3 0 3 -9 13 -20z"/>
<path d="M1960 718 l5 -223 3 218 c2 184 5 217 17 217 12 0 15 -20 15 -115 0
-72 4 -115 10 -115 7 0 10 42 8 118 l-3 117 -30 3 -30 3 5 -223z"/>
<path d="M10862 855 c0 -16 2 -22 5 -12 2 9 2 23 0 30 -3 6 -5 -1 -5 -18z"/>
<path d="M7020 805 c13 -14 26 -25 28 -25 3 0 -5 11 -18 25 -13 14 -26 25 -28
25 -3 0 5 -11 18 -25z"/>
<path d="M9410 805 c13 -14 26 -25 28 -25 3 0 -5 11 -18 25 -13 14 -26 25 -28
25 -3 0 5 -11 18 -25z"/>
<path d="M10861 774 c0 -11 3 -14 6 -6 3 7 2 16 -1 19 -3 4 -6 -2 -5 -13z"/>
<path d="M2440 710 c0 -6 -55 -10 -146 -10 -90 0 -143 -4 -139 -10 3 -5 -31
-11 -87 -13 -51 -1 14 -4 145 -5 l237 -2 0 25 c0 14 -2 25 -5 25 -3 0 -5 -4
-5 -10z m-72 -27 c-38 -2 -98 -2 -135 0 -38 2 -7 3 67 3 74 0 105 -1 68 -3z"/>
<path d="M11071 713 c-3 -42 4 -43 188 -41 97 1 159 3 138 5 -20 2 -35 8 -32
14 4 5 -51 9 -139 9 -106 0 -146 3 -149 13 -4 8 -6 8 -6 0z m217 -30 c-38 -2
-98 -2 -135 0 -38 2 -7 3 67 3 74 0 105 -1 68 -3z"/>
<path d="M2590 700 c0 -5 5 -10 11 -10 5 0 7 5 4 10 -3 6 -8 10 -11 10 -2 0
-4 -4 -4 -10z"/>
<path d="M3710 702 c-5 -2 -9 -16 -9 -30 2 -23 2 -24 6 -5 3 14 11 21 24 20
10 -1 19 -5 19 -9 0 -4 68 -8 150 -8 136 0 150 2 150 18 0 15 -15 17 -165 17
-91 0 -169 -1 -175 -3z m262 -19 c-40 -2 -103 -2 -140 0 -37 2 -4 3 73 3 77 0
107 -2 67 -3z"/>
<path d="M4190 700 c0 -6 7 -10 15 -10 8 0 15 2 15 4 0 2 -7 6 -15 10 -8 3
-15 1 -15 -4z"/>
<path d="M4685 702 c-2 -2 -1 -10 2 -18 8 -21 278 -20 286 0 5 13 -17 15 -139
18 -80 2 -147 1 -149 0z m208 -19 c-34 -2 -93 -2 -130 0 -37 2 -9 3 62 3 72 0
102 -1 68 -3z"/>
<path d="M5005 700 c-17 -6 -15 -8 13 -12 17 -2 32 -1 32 3 0 12 -24 17 -45 9z"/>
<path d="M6110 698 c0 -5 9 -8 21 -8 11 0 17 -4 14 -10 -4 -6 47 -10 144 -10
137 0 151 2 151 18 0 15 -15 17 -165 17 -91 0 -165 -3 -165 -7z m258 -15 c-38
-2 -98 -2 -135 0 -38 2 -7 3 67 3 74 0 105 -1 68 -3z"/>
<path d="M6580 691 c0 -19 5 -21 63 -19 l62 2 -58 3 c-32 2 -55 8 -52 13 3 5
1 11 -5 15 -5 3 -10 -3 -10 -14z"/>
<path d="M6917 690 c-3 -11 -1 -20 4 -20 5 0 9 9 9 20 0 11 -2 20 -4 20 -2 0
-6 -9 -9 -20z"/>
<path d="M7070 688 c0 -16 14 -18 145 -18 83 0 145 4 145 9 0 5 12 11 28 14
15 2 -51 5 -146 8 -159 4 -172 3 -172 -13z m213 -5 c-34 -2 -93 -2 -130 0 -37
2 -9 3 62 3 72 0 102 -1 68 -3z"/>
<path d="M9307 690 c-3 -11 -1 -20 4 -20 5 0 9 9 9 20 0 11 -2 20 -4 20 -2 0
-6 -9 -9 -20z"/>
<path d="M9460 688 c0 -16 14 -18 145 -18 83 0 145 4 145 9 0 6 15 11 33 14
17 2 -48 5 -146 8 -164 4 -177 3 -177 -13z m208 -5 c-38 -2 -98 -2 -135 0 -38
2 -7 3 67 3 74 0 105 -1 68 -3z"/>
<path d="M10860 699 c0 -5 10 -9 22 -9 12 0 18 3 14 7 -10 11 -36 12 -36 2z"/>
<path d="M11833 703 c-118 -3 -143 -6 -143 -18 0 -13 24 -15 145 -15 138 0
145 1 145 20 0 11 -1 19 -2 18 -2 -1 -67 -4 -145 -5z m75 -20 c-38 -2 -98 -2
-135 0 -38 2 -7 3 67 3 74 0 105 -1 68 -3z"/>
<path d="M2630 693 c8 -3 18 -11 22 -17 5 -7 8 -4 8 7 0 11 -7 17 -22 16 -16
0 -18 -2 -8 -6z"/>
<path d="M4530 690 c0 -6 -32 -10 -75 -10 -41 0 -75 -3 -75 -7 0 -5 36 -7 80
-5 61 3 80 7 80 18 0 8 -2 14 -5 14 -3 0 -5 -4 -5 -10z"/>
<path d="M8536 685 c5 -13 28 -15 147 -13 101 2 142 6 145 16 3 9 -31 12 -147
12 -131 0 -150 -2 -145 -15z m212 -2 c-38 -2 -98 -2 -135 0 -38 2 -7 3 67 3
74 0 105 -1 68 -3z"/>
<path d="M8970 688 c0 -14 8 -18 38 -17 34 2 34 2 7 6 -16 3 -33 10 -37 16 -5
8 -8 6 -8 -5z"/>
<path d="M10915 690 c3 -5 8 -10 11 -10 2 0 4 5 4 10 0 6 -5 10 -11 10 -5 0
-7 -4 -4 -10z"/>
<path d="M4210 674 c58 -8 150 -8 150 -1 0 4 -39 6 -87 6 -49 -1 -77 -3 -63
-5z"/>
<path d="M6710 676 c0 -2 9 -6 20 -9 11 -3 18 -1 14 4 -5 9 -34 13 -34 5z"/>
<path d="M6765 670 c-3 -6 1 -7 9 -4 18 7 21 14 7 14 -6 0 -13 -4 -16 -10z"/>
<path d="M6853 673 c9 -2 25 -2 35 0 9 3 1 5 -18 5 -19 0 -27 -2 -17 -5z"/>
<path d="M9156 671 c-4 -5 3 -7 14 -4 23 6 26 13 6 13 -8 0 -17 -4 -20 -9z"/>
<path d="M9208 673 c7 -3 16 -2 19 1 4 3 -2 6 -13 5 -11 0 -14 -3 -6 -6z"/>
<path d="M9253 673 c9 -2 23 -2 30 0 6 3 -1 5 -18 5 -16 0 -22 -2 -12 -5z"/>
<path d="M11490 676 c0 -2 7 -7 16 -10 8 -3 12 -2 9 4 -6 10 -25 14 -25 6z"/>
<path d="M11540 672 c0 -4 16 -6 35 -4 19 2 35 6 35 8 0 2 -16 4 -35 4 -19 0
-35 -4 -35 -8z"/>
<path d="M2651 644 c0 -11 3 -14 6 -6 3 7 2 16 -1 19 -3 4 -6 -2 -5 -13z"/>
<path d="M10852 645 c-11 -12 -10 -15 3 -15 8 0 15 7 15 15 0 18 -2 18 -18 0z"/>
<path d="M1454 545 c0 -60 1 -84 3 -52 2 32 2 81 0 110 -2 29 -3 3 -3 -58z"/>
<path d="M3153 575 c0 -44 2 -61 4 -37 2 23 2 59 0 80 -2 20 -4 1 -4 -43z"/>
<path d="M3725 640 c-3 -5 -1 -10 4 -10 6 0 11 5 11 10 0 6 -2 10 -4 10 -3 0
-8 -4 -11 -10z"/>
<path d="M11511 614 c0 -11 3 -14 6 -6 3 7 2 16 -1 19 -3 4 -6 -2 -5 -13z"/>
<path d="M9910 585 c13 -14 26 -25 28 -25 3 0 -5 11 -18 25 -13 14 -26 25 -28
25 -3 0 5 -11 18 -25z"/>
<path d="M5130 596 c0 -2 8 -10 18 -17 15 -13 16 -12 3 4 -13 16 -21 21 -21
13z"/>
<path d="M3589 573 c-13 -16 -12 -17 4 -4 16 13 21 21 13 21 -2 0 -10 -8 -17
-17z"/>
<path d="M2776 557 c3 -10 9 -15 12 -12 3 3 0 11 -7 18 -10 9 -11 8 -5 -6z"/>
<path d="M7546 557 c3 -10 9 -15 12 -12 3 3 0 11 -7 18 -10 9 -11 8 -5 -6z"/>
<path d="M5166 547 c3 -10 9 -15 12 -12 3 3 0 11 -7 18 -10 9 -11 8 -5 -6z"/>
<path d="M303 475 c0 -27 2 -38 4 -22 2 15 2 37 0 50 -2 12 -4 0 -4 -28z"/>
<path d="M3183 480 c0 -25 2 -35 4 -22 2 12 2 32 0 45 -2 12 -4 2 -4 -23z"/>
<path d="M9951 504 c0 -11 3 -14 6 -6 3 7 2 16 -1 19 -3 4 -6 -2 -5 -13z"/>
<path d="M10721 504 c0 -11 3 -14 6 -6 3 7 2 16 -1 19 -3 4 -6 -2 -5 -13z"/>
<path d="M4383 475 c0 -22 2 -30 4 -17 2 12 2 30 0 40 -3 9 -5 -1 -4 -23z"/>
<path d="M3152 465 c0 -16 2 -22 5 -12 2 9 2 23 0 30 -3 6 -5 -1 -5 -18z"/>
<path d="M3700 486 c0 -2 7 -6 15 -10 8 -3 15 -1 15 4 0 6 -7 10 -15 10 -8 0
-15 -2 -15 -4z"/>
<path d="M1961 454 c0 -11 3 -14 6 -6 3 7 2 16 -1 19 -3 4 -6 -2 -5 -13z"/>
<path d="M11511 454 c0 -11 3 -14 6 -6 3 7 2 16 -1 19 -3 4 -6 -2 -5 -13z"/>
<path d="M9125 450 c-3 -5 -1 -10 4 -10 6 0 11 5 11 10 0 6 -2 10 -4 10 -3 0
-8 -4 -11 -10z"/>
<path d="M5688 443 c7 -3 16 -2 19 1 4 3 -2 6 -13 5 -11 0 -14 -3 -6 -6z"/>
<path d="M11908 443 c7 -3 16 -2 19 1 4 3 -2 6 -13 5 -11 0 -14 -3 -6 -6z"/>
</g>
</svg>
